<?xml version="1.0" encoding="utf-8"?>
<!-- Generator: Adobe Illustrator 19.2.0, SVG Export Plug-In . SVG Version: 6.00 Build 0)  -->
<svg version="1.1" id="Ebene_1" xmlns="http://www.w3.org/2000/svg" xmlns:xlink="http://www.w3.org/1999/xlink" x="0px" y="0px"
	 viewBox="0 0 841.9 595.3" style="enable-background:new 0 0 841.9 595.3;" xml:space="preserve">
<g>
	<defs>
		<rect id="SVGID_1_" x="281" y="217.8" width="279.5" height="160.5"/>
	</defs>
	<clipPath id="SVGID_2_">
		<use xlink:href="#SVGID_1_"  style="overflow:visible;"/>
	</clipPath>
	<path style="clip-path:url(#SVGID_2_);fill:#FFFFFF;" d="M515.5,344.2c0,0.2,0.1,0.3,0.2,0.3h1.6c0.2,0,0.3-0.1,0.3-0.3l0.6-4.4
		h4.4l-0.6,4.4c0,0.2,0.1,0.3,0.2,0.3h1.6c0.1,0,0.3-0.1,0.3-0.3l1.5-10.6c0-0.2-0.1-0.3-0.2-0.3h-1.5c-0.2,0-0.3,0.1-0.3,0.3
		l-0.6,4.2h-4.4l0.6-4.2c0-0.2-0.1-0.3-0.2-0.3h-1.5c-0.1,0-0.3,0.1-0.3,0.3L515.5,344.2z M504,339.7c0,2.8,1.8,5,4.6,5
		c1.3,0,2.5-0.5,3.6-1.6c0.1-0.1,0.2-0.3,0.1-0.4l-0.8-1c-0.1-0.2-0.3-0.2-0.5,0c-0.5,0.5-1.3,0.9-2.2,0.9c-1.5,0-2.4-1.5-2.4-3.2
		c0-2.3,1.7-4.3,3.6-4.3c0.9,0,1.6,0.4,2,0.8c0.1,0.1,0.4,0.2,0.5,0l0.9-0.8c0.1-0.1,0.2-0.3,0.1-0.4c-0.8-0.9-1.9-1.5-3.3-1.5
		C506.6,333.2,504,336,504,339.7 M498.5,343.5c0,0.6,0.5,1.2,1.1,1.2c0.8,0,1.5-0.7,1.5-1.5c0-0.6-0.5-1.2-1.1-1.2
		C499.2,342,498.5,342.7,498.5,343.5 M489.1,344.2c0,0.2,0.1,0.3,0.2,0.3h5.9c0.2,0,0.3-0.1,0.3-0.3l0.2-1.3c0-0.2-0.1-0.3-0.2-0.3
		h-4.1l0.4-2.8h3.4c0.1,0,0.3-0.1,0.3-0.3l0.2-1.3c0-0.2-0.1-0.3-0.2-0.3h-3.4l0.4-2.6h4.1c0.2,0,0.3-0.1,0.3-0.3l0.2-1.3
		c0-0.2-0.1-0.3-0.2-0.3h-5.9c-0.1,0-0.3,0.1-0.3,0.3L489.1,344.2z M480.5,338.4l0.4-3.2h2.2c0.6,0,1,0.6,1,1.3c0,1-0.7,1.9-1.7,1.9
		H480.5z M477.6,344.2c0,0.2,0.1,0.3,0.2,0.3h1.6c0.1,0,0.3-0.1,0.3-0.3l0.6-4.1h1.5l1.2,4.1c0,0.2,0.2,0.3,0.4,0.3h1.5
		c0.2,0,0.3-0.2,0.3-0.4l-1.3-4.1c1.5-0.5,2.5-1.7,2.5-3.7c0-1.6-1.1-3-2.7-3h-4.2c-0.1,0-0.3,0.1-0.3,0.3L477.6,344.2z
		 M465.8,340.3c-0.3,2.4,1.2,4.4,3.4,4.4c2.5,0,4.4-2,4.7-4.4l0.9-6.7c0-0.2-0.1-0.3-0.2-0.3H473c-0.2,0-0.3,0.1-0.3,0.3l-0.9,6.6
		c-0.2,1.3-1.1,2.4-2.3,2.4c-1.1,0-1.8-1-1.6-2.4l0.9-6.5c0-0.2-0.1-0.3-0.2-0.3H467c-0.1,0-0.3,0.1-0.3,0.3L465.8,340.3z
		 M457.7,344.2c0,0.2,0.1,0.3,0.2,0.3h1.6c0.1,0,0.3-0.1,0.3-0.3l1.3-9h2.1c0.2,0,0.3-0.1,0.3-0.3l0.2-1.3c0-0.2-0.1-0.3-0.2-0.3
		h-6.4c-0.1,0-0.3,0.1-0.3,0.3l-0.2,1.3c0,0.2,0.1,0.3,0.2,0.3h2.1L457.7,344.2z M448.4,340.7l1.7-3.5h0l0.8,3.5H448.4z
		 M444.5,344.5h1.5c0.3,0,0.4-0.2,0.5-0.3l0.9-1.8h4l0.4,1.8c0,0.2,0.2,0.3,0.4,0.3h1.4c0.2,0,0.4-0.2,0.3-0.4l-2.9-10.8
		c0-0.1-0.1-0.2-0.2-0.2h-0.1c-0.1,0-0.2,0.1-0.3,0.2l-6,10.8C444.2,344.3,444.3,344.5,444.5,344.5 M432.7,344.3
		c0,0.1,0.1,0.3,0.2,0.3h1.5c0.2,0,0.3-0.1,0.3-0.3l0.9-6.7h0l4.9,7.1h0.4c0.1,0,0.3-0.1,0.3-0.3l1.5-10.8c0-0.2-0.1-0.3-0.2-0.3
		H441c-0.2,0-0.3,0.1-0.3,0.3l-0.9,6.4h0l-4.9-6.9h-0.4c-0.1,0-0.3,0.1-0.3,0.3L432.7,344.3z M422.5,344.2c0,0.2,0.1,0.3,0.2,0.3
		h5.9c0.2,0,0.3-0.1,0.3-0.3l0.2-1.3c0-0.2-0.1-0.3-0.2-0.3h-4.1l0.4-2.8h3.4c0.1,0,0.3-0.1,0.3-0.3l0.2-1.3c0-0.2-0.1-0.3-0.2-0.3
		h-3.4l0.4-2.6h4.1c0.2,0,0.3-0.1,0.3-0.3l0.2-1.3c0-0.2-0.1-0.3-0.2-0.3h-5.9c-0.1,0-0.3,0.1-0.3,0.3L422.5,344.2z M413.9,338.4
		l0.4-3.2h2.2c0.6,0,1,0.6,1,1.3c0,1-0.7,1.9-1.7,1.9H413.9z M411,344.2c0,0.2,0.1,0.3,0.2,0.3h1.6c0.1,0,0.3-0.1,0.3-0.3l0.6-4.1
		h1.5l1.2,4.1c0,0.2,0.2,0.3,0.4,0.3h1.5c0.2,0,0.3-0.2,0.3-0.4l-1.3-4.1c1.5-0.5,2.5-1.7,2.5-3.7c0-1.6-1.1-3-2.7-3h-4.2
		c-0.1,0-0.3,0.1-0.3,0.3L411,344.2z M402.5,340.7l1.7-3.5h0l0.8,3.5H402.5z M398.6,344.5h1.5c0.3,0,0.4-0.2,0.5-0.3l0.9-1.8h4
		l0.4,1.8c0,0.2,0.2,0.3,0.4,0.3h1.4c0.2,0,0.4-0.2,0.3-0.4l-2.9-10.8c0-0.1-0.1-0.2-0.2-0.2h-0.1c-0.1,0-0.2,0.1-0.3,0.2l-6,10.8
		C398.3,344.3,398.4,344.5,398.6,344.5 M389.6,344.2c0,0.2,0.1,0.3,0.2,0.3h5.9c0.2,0,0.3-0.1,0.3-0.3l0.2-1.3
		c0-0.2-0.1-0.3-0.2-0.3h-4.1l0.4-2.8h3.4c0.1,0,0.3-0.1,0.3-0.3l0.2-1.3c0-0.2-0.1-0.3-0.2-0.3h-3.4l0.4-2.6h4.1
		c0.2,0,0.3-0.1,0.3-0.3l0.2-1.3c0-0.2-0.1-0.3-0.2-0.3h-5.9c-0.1,0-0.3,0.1-0.3,0.3L389.6,344.2z M376.7,344.5
		c0,0.1,0.1,0.2,0.2,0.2h0.2c0.1,0,0.2-0.1,0.3-0.2l3.6-6.9h0.1l1.6,6.9c0,0.1,0.1,0.2,0.2,0.2h0.2c0.1,0,0.2-0.1,0.3-0.2l4.2-10.8
		c0.1-0.2,0-0.4-0.2-0.4h-1.5c-0.1,0-0.2,0.1-0.3,0.2l-2.3,6.1h-0.1l-1.3-6.3c0-0.1-0.1-0.2-0.2-0.2h-0.3c-0.1,0-0.2,0.1-0.3,0.2
		l-3.2,6.3h-0.1l-0.5-6.1c0-0.1-0.1-0.2-0.2-0.2h-1.4c-0.2,0-0.3,0.2-0.3,0.4L376.7,344.5z M364.1,341.8c0-1.2,0.5-2.1,1.4-2.1
		c0.6,0,1,0.4,1.1,0.7l-0.1,0.7c-0.2,1.1-0.8,1.9-1.6,1.9C364.4,343,364.1,342.5,364.1,341.8 M358.7,342c0,2.8,1.6,5.3,3.7,6.2
		c0.1,0.1,0.3,0,0.4-0.2l0.5-1c0.1-0.2,0-0.3-0.1-0.4c-1.6-0.8-2.7-2.7-2.7-4.8c0-4.1,2.5-7,6-7c2.7,0,3.9,1.9,3.9,4.3
		c0,1.9-0.7,3.9-1.8,3.9c-0.4,0-0.8-0.3-0.6-1.6l0.4-2.9c0-0.2-0.1-0.3-0.2-0.3h-0.5c-0.2,0-0.2,0.1-0.3,0.2l-0.3,0.5
		c-0.2-0.3-0.8-0.9-1.7-0.9c-1.7,0-3.1,1.7-3.1,3.9c0,1.6,0.9,2.8,2.2,2.8c0.9,0,1.8-0.6,2.2-1.2h0.1c0.1,0.7,0.5,1.2,1.5,1.2
		c2.8,0,4-3.3,4-5.8c0-3.2-2.2-5.7-5.7-5.7C361.9,333.2,358.7,337,358.7,342 M350.7,342.6c-1.5,0-2.6-1.4-2.6-3.2
		c0-2.3,1.7-4.2,3.6-4.2c1.5,0,2.6,1.5,2.6,3.2C354.3,340.7,352.6,342.6,350.7,342.6 M346,339.7c0,2.7,1.9,5,4.5,5
		c3.4,0,6-2.9,6-6.5c0-2.7-1.9-5-4.5-5C348.6,333.2,346,336.1,346,339.7 M336.2,344.2c0,0.2,0.1,0.3,0.2,0.3h1.5
		c0.1,0,0.3-0.1,0.3-0.3l0.6-4h3.4c0.1,0,0.3-0.1,0.3-0.3l0.2-1.3c0-0.2-0.1-0.3-0.2-0.3h-3.4l0.4-3h4.1c0.2,0,0.3-0.1,0.3-0.3
		l0.2-1.3c0-0.2-0.1-0.3-0.2-0.3h-5.9c-0.1,0-0.3,0.1-0.3,0.3L336.2,344.2z M323.2,344.3c0,0.1,0.1,0.3,0.2,0.3h1.5
		c0.2,0,0.3-0.1,0.3-0.3l0.9-6.7h0l4.9,7.1h0.4c0.1,0,0.3-0.1,0.3-0.3l1.5-10.8c0-0.2-0.1-0.3-0.2-0.3h-1.6c-0.2,0-0.3,0.1-0.3,0.3
		l-0.9,6.4h0l-4.9-6.9H325c-0.1,0-0.3,0.1-0.3,0.3L323.2,344.3z M316.7,344.2c0,0.2,0.1,0.3,0.2,0.3h1.6c0.1,0,0.3-0.1,0.3-0.3
		l1.5-10.6c0-0.2-0.1-0.3-0.2-0.3h-1.6c-0.1,0-0.3,0.1-0.3,0.3L316.7,344.2z"/>
	<path style="clip-path:url(#SVGID_2_);fill:#FFFFFF;" d="M464.1,317.2c0,0.2,0.1,0.3,0.2,0.3h1.6c0.2,0,0.3-0.1,0.3-0.3l0.6-4.4
		h4.4l-0.6,4.4c0,0.2,0.1,0.3,0.2,0.3h1.6c0.1,0,0.3-0.1,0.3-0.3l1.5-10.6c0-0.2-0.1-0.3-0.2-0.3h-1.5c-0.2,0-0.3,0.1-0.3,0.3
		l-0.6,4.2h-4.4l0.6-4.2c0-0.2-0.1-0.3-0.2-0.3h-1.5c-0.1,0-0.3,0.1-0.3,0.3L464.1,317.2z M452.5,312.7c0,2.8,1.8,5,4.6,5
		c1.3,0,2.5-0.5,3.6-1.6c0.1-0.1,0.2-0.3,0.1-0.4l-0.8-1c-0.1-0.2-0.3-0.2-0.5,0c-0.5,0.5-1.3,0.9-2.2,0.9c-1.5,0-2.4-1.5-2.4-3.2
		c0-2.3,1.7-4.3,3.6-4.3c0.9,0,1.6,0.4,2,0.8c0.1,0.1,0.4,0.2,0.5,0l0.9-0.8c0.1-0.1,0.2-0.3,0.1-0.4c-0.8-0.9-1.9-1.5-3.3-1.5
		C455.2,306.2,452.5,309,452.5,312.7 M446.1,317.2c0,0.2,0.1,0.3,0.2,0.3h1.6c0.1,0,0.3-0.1,0.3-0.3l1.5-10.6c0-0.2-0.1-0.3-0.2-0.3
		h-1.6c-0.1,0-0.3,0.1-0.3,0.3L446.1,317.2z M437.5,311.4l0.4-3.2h2.2c0.6,0,1,0.6,1,1.3c0,1-0.7,1.9-1.7,1.9H437.5z M434.6,317.2
		c0,0.2,0.1,0.3,0.2,0.3h1.6c0.1,0,0.3-0.1,0.3-0.3l0.6-4.1h1.5l1.2,4.1c0,0.2,0.2,0.3,0.4,0.3h1.5c0.2,0,0.3-0.2,0.3-0.4l-1.3-4.1
		c1.5-0.5,2.5-1.7,2.5-3.7c0-1.6-1.1-3-2.7-3h-4.2c-0.1,0-0.3,0.1-0.3,0.3L434.6,317.2z M426.2,305.1c0.5,0,1-0.5,1.1-1
		c0.1-0.6-0.3-1-0.8-1c-0.5,0-1,0.4-1,1C425.3,304.7,425.7,305.1,426.2,305.1 M429.7,305.1c0.5,0,1-0.5,1.1-1c0.1-0.6-0.3-1-0.8-1
		c-0.5,0-1,0.4-1,1C428.9,304.7,429.2,305.1,429.7,305.1 M422.8,313.3c-0.3,2.4,1.2,4.4,3.4,4.4c2.5,0,4.4-2,4.7-4.4l0.9-6.7
		c0-0.2-0.1-0.3-0.2-0.3H430c-0.2,0-0.3,0.1-0.3,0.3l-0.9,6.6c-0.2,1.3-1.1,2.4-2.3,2.4c-1.1,0-1.8-1-1.6-2.4l0.9-6.5
		c0-0.2-0.1-0.3-0.2-0.3H424c-0.1,0-0.3,0.1-0.3,0.3L422.8,313.3z M412.1,317.5h6.2c0.2,0,0.3-0.1,0.3-0.3l0.2-1.3
		c0-0.2-0.1-0.3-0.2-0.3h-3.4v-0.1l5.2-8.7l0-0.2c0-0.2-0.1-0.3-0.2-0.3h-6.1c-0.1,0-0.3,0.1-0.3,0.3l-0.2,1.3
		c0,0.2,0.1,0.3,0.2,0.3h3.4v0.1l-5.3,8.6l0,0.3C411.8,317.4,412,317.5,412.1,317.5 M400.1,314.8c0-0.8,0.6-1.6,1.6-1.9
		c0.7,0.2,1.1,0.9,1.1,1.5c0,1-0.8,1.6-1.6,1.6C400.6,316,400.1,315.5,400.1,314.8 M401.9,311c-0.7-0.2-1-0.7-1-1.3
		c0-0.9,0.7-1.5,1.4-1.5c0.6,0,1,0.4,1,1.1C403.3,310.1,402.8,310.8,401.9,311 M397.9,315c0,1.5,1.1,2.7,3.1,2.7
		c2.5,0,3.9-1.5,3.9-3.4c0-1.2-0.9-2-1.4-2.4l0-0.1c0.7-0.4,1.9-1.4,1.9-2.8c0-1.5-1.3-2.6-2.9-2.6c-2,0-3.6,1.3-3.6,3.2
		c0,1.1,0.7,1.9,1.2,2.2v0C399.7,312.2,397.9,313.3,397.9,315 M389.8,313.5l3.1-3.5l-0.6,3.5H389.8z M387.7,315.2h4.3l-0.3,2
		c0,0.2,0.1,0.3,0.2,0.3h1.4c0.1,0,0.3-0.1,0.3-0.3l0.3-2h1.1c0.2,0,0.3-0.1,0.3-0.3l0.1-1c0-0.2-0.1-0.3-0.2-0.3h-1.1l0.9-6.8
		c0-0.2-0.1-0.3-0.2-0.3h-0.9c-0.1,0-0.2,0-0.2,0.1l-6.1,7l-0.2,1.3C387.4,315.1,387.5,315.2,387.7,315.2 M381.2,315.8
		c-0.8,0-1.1-0.9-1.1-2.4c0-2.8,0.8-5,2.2-5c0.7,0,1.1,0.9,1.1,2.4C383.3,313.6,382.5,315.8,381.2,315.8 M380.9,317.7
		c2.9,0,4.6-2.8,4.6-7c0-2.6-1.1-4.2-3-4.2c-2.8,0-4.6,2.8-4.6,7C377.9,316,379,317.7,380.9,317.7 M369.8,314.8
		c0-0.8,0.6-1.6,1.6-1.9c0.7,0.2,1.1,0.9,1.1,1.5c0,1-0.8,1.6-1.6,1.6C370.4,316,369.8,315.5,369.8,314.8 M371.7,311
		c-0.7-0.2-1-0.7-1-1.3c0-0.9,0.7-1.5,1.4-1.5c0.6,0,1,0.4,1,1.1C373.1,310.1,372.6,310.8,371.7,311 M367.7,315
		c0,1.5,1.1,2.7,3.1,2.7c2.5,0,3.9-1.5,3.9-3.4c0-1.2-0.9-2-1.4-2.4l0-0.1c0.7-0.4,1.9-1.4,1.9-2.8c0-1.5-1.3-2.6-2.9-2.6
		c-2,0-3.6,1.3-3.6,3.2c0,1.1,0.7,1.9,1.2,2.2v0C369.5,312.2,367.7,313.3,367.7,315"/>
	<path style="clip-path:url(#SVGID_2_);fill:#FFFFFF;" d="M493,286.5l3.1-3.5l-0.6,3.5H493z M490.9,288.2h4.3l-0.3,2
		c0,0.2,0.1,0.3,0.2,0.3h1.4c0.1,0,0.3-0.1,0.3-0.3l0.3-2h1.1c0.2,0,0.3-0.1,0.3-0.3l0.1-1c0-0.2-0.1-0.3-0.2-0.3h-1.1l0.9-6.8
		c0-0.2-0.1-0.3-0.2-0.3h-0.9c-0.1,0-0.2,0-0.2,0.1l-6.1,7l-0.2,1.3C490.6,288.1,490.7,288.2,490.9,288.2 M481.9,290.5h5.7
		c0.1,0,0.3-0.1,0.3-0.3l0.1-1.1c0-0.2-0.1-0.3-0.2-0.3h-2.9l3-3.6c0.8-0.9,1.2-1.9,1.2-2.8c0-1.7-1-3-2.9-3c-1.7,0-2.8,1.3-3.1,1.6
		c-0.1,0.1-0.1,0.3,0,0.4l0.8,0.9c0.1,0.1,0.3,0.1,0.4,0c0.4-0.4,1-1,1.7-1c0.8,0,1.1,0.6,1.1,1.3c0,0.8-0.5,1.4-0.9,1.9l-4.5,5.3
		l0,0.4C481.6,290.4,481.7,290.5,481.9,290.5 M467.7,290.2c0,0.2,0.1,0.3,0.2,0.3h5.9c0.2,0,0.3-0.1,0.3-0.3l0.2-1.3
		c0-0.2-0.1-0.3-0.2-0.3H470l0.4-2.8h3.4c0.1,0,0.3-0.1,0.3-0.3l0.2-1.3c0-0.2-0.1-0.3-0.2-0.3h-3.4l0.4-2.6h4.1
		c0.2,0,0.3-0.1,0.3-0.3l0.2-1.3c0-0.2-0.1-0.3-0.2-0.3h-5.9c-0.1,0-0.3,0.1-0.3,0.3L467.7,290.2z M457.6,289.4
		c0.3,0.3,1.4,1.2,3,1.2c2.4,0,3.8-1.6,3.8-3.4c0-1.8-1.4-2.6-2.5-3.3c-1-0.6-1.4-1-1.4-1.6c0-0.6,0.5-1.2,1.4-1.2
		c0.8,0,1.6,0.5,1.8,0.7c0.2,0.2,0.4,0.2,0.6,0l0.6-0.9c0.2-0.2,0.1-0.4,0-0.6c-0.3-0.3-1.4-1-2.8-1c-2.5,0-3.6,1.7-3.6,3.3
		c0,1.6,1.2,2.5,2.3,3.2c0.9,0.6,1.4,1.1,1.4,1.8c0,0.8-0.7,1.4-1.4,1.4c-1,0-1.8-0.6-2-0.8c-0.1-0.1-0.4-0.2-0.5,0.1l-0.6,0.9
		C457.5,289.2,457.5,289.3,457.6,289.4 M448,289.4c0.3,0.3,1.4,1.2,3,1.2c2.4,0,3.8-1.6,3.8-3.4c0-1.8-1.4-2.6-2.5-3.3
		c-1-0.6-1.4-1-1.4-1.6c0-0.6,0.5-1.2,1.4-1.2c0.8,0,1.6,0.5,1.8,0.7c0.2,0.2,0.4,0.2,0.6,0l0.6-0.9c0.2-0.2,0.1-0.4,0-0.6
		c-0.3-0.3-1.4-1-2.8-1c-2.5,0-3.6,1.7-3.6,3.3c0,1.6,1.2,2.5,2.3,3.2c0.9,0.6,1.4,1.1,1.4,1.8c0,0.8-0.7,1.4-1.4,1.4
		c-1,0-1.8-0.6-2-0.8c-0.1-0.1-0.4-0.2-0.5,0.1L448,289C447.8,289.2,447.9,289.3,448,289.4 M439.9,286.7l1.7-3.5h0l0.8,3.5H439.9z
		 M436.1,290.5h1.5c0.3,0,0.4-0.2,0.5-0.3l0.9-1.8h4l0.4,1.8c0,0.2,0.2,0.3,0.4,0.3h1.4c0.2,0,0.4-0.2,0.3-0.4l-2.9-10.8
		c0-0.1-0.1-0.2-0.2-0.2h-0.1c-0.1,0-0.2,0.1-0.3,0.2l-6,10.8C435.8,290.3,435.9,290.5,436.1,290.5 M428.7,284.4l0.4-3.2h2.2
		c0.6,0,1,0.6,1,1.3c0,1-0.7,1.9-1.7,1.9H428.7z M425.8,290.2c0,0.2,0.1,0.3,0.2,0.3h1.6c0.1,0,0.3-0.1,0.3-0.3l0.6-4.1h1.5l1.2,4.1
		c0,0.2,0.2,0.3,0.4,0.3h1.5c0.2,0,0.3-0.2,0.3-0.4l-1.3-4.1c1.5-0.5,2.5-1.7,2.5-3.7c0-1.6-1.1-3-2.7-3h-4.2
		c-0.1,0-0.3,0.1-0.3,0.3L425.8,290.2z M418.1,290.2c0,0.2,0.1,0.3,0.2,0.3h1.6c0.1,0,0.3-0.1,0.3-0.3l1.3-9h2.1
		c0.2,0,0.3-0.1,0.3-0.3l0.2-1.3c0-0.2-0.1-0.3-0.2-0.3h-6.4c-0.1,0-0.3,0.1-0.3,0.3l-0.2,1.3c0,0.2,0.1,0.3,0.2,0.3h2.1
		L418.1,290.2z M406.9,289.4c0.3,0.3,1.4,1.2,3,1.2c2.4,0,3.8-1.6,3.8-3.4c0-1.8-1.4-2.6-2.5-3.3c-1-0.6-1.4-1-1.4-1.6
		c0-0.6,0.5-1.2,1.4-1.2c0.8,0,1.6,0.5,1.8,0.7c0.2,0.2,0.4,0.2,0.6,0l0.6-0.9c0.2-0.2,0.1-0.4,0-0.6c-0.3-0.3-1.4-1-2.8-1
		c-2.5,0-3.6,1.7-3.6,3.3c0,1.6,1.2,2.5,2.3,3.2c0.9,0.6,1.4,1.1,1.4,1.8c0,0.8-0.7,1.4-1.4,1.4c-1,0-1.8-0.6-2-0.8
		c-0.1-0.1-0.4-0.2-0.5,0.1l-0.6,0.9C406.7,289.2,406.8,289.3,406.9,289.4 M398.8,286.7l1.7-3.5h0l0.8,3.5H398.8z M395,290.5h1.5
		c0.3,0,0.4-0.2,0.5-0.3l0.9-1.8h4l0.4,1.8c0,0.2,0.2,0.3,0.4,0.3h1.4c0.2,0,0.4-0.2,0.3-0.4l-2.9-10.8c0-0.1-0.1-0.2-0.2-0.2h-0.1
		c-0.1,0-0.2,0.1-0.3,0.2l-6,10.8C394.7,290.3,394.7,290.5,395,290.5 M386.7,290.2c0,0.2,0.1,0.3,0.2,0.3h5.3c0.2,0,0.3-0.1,0.3-0.3
		l0.2-1.3c0-0.2-0.1-0.3-0.2-0.3H389l1.3-9c0-0.2-0.1-0.3-0.2-0.3h-1.6c-0.2,0-0.3,0.1-0.3,0.3L386.7,290.2z M374.9,286.3
		c-0.3,2.4,1.2,4.4,3.4,4.4c2.5,0,4.4-2,4.7-4.4l0.9-6.7c0-0.2-0.1-0.3-0.2-0.3h-1.6c-0.2,0-0.3,0.1-0.3,0.3l-0.9,6.6
		c-0.2,1.3-1.1,2.4-2.3,2.4c-1.1,0-1.8-1-1.6-2.4l0.9-6.5c0-0.2-0.1-0.3-0.2-0.3h-1.6c-0.1,0-0.3,0.1-0.3,0.3L374.9,286.3z
		 M366,288.6l0.4-2.8h1.3c0.6,0,1.1,0.5,1.1,1.2c0,0.9-0.7,1.6-1.5,1.6H366z M366.7,284l0.4-2.8h1.3c0.6,0,0.9,0.5,0.9,1.1
		c0,0.9-0.6,1.7-1.5,1.7H366.7z M363.7,290.2c0,0.2,0.1,0.3,0.2,0.3h3.5c2.2,0,3.6-1.5,3.6-3.4c0-1.2-0.8-2-1.5-2.2
		c0.8-0.4,2-1.5,2-3c0-1.4-1.1-2.6-2.7-2.6h-3.3c-0.2,0-0.3,0.1-0.3,0.3L363.7,290.2z M354.8,290.2c0,0.2,0.1,0.3,0.2,0.3h5.3
		c0.2,0,0.3-0.1,0.3-0.3l0.2-1.3c0-0.2-0.1-0.3-0.2-0.3h-3.5l1.3-9c0-0.2-0.1-0.3-0.2-0.3h-1.6c-0.2,0-0.3,0.1-0.3,0.3L354.8,290.2z
		 M346.3,286.7l1.7-3.5h0l0.8,3.5H346.3z M342.4,290.5h1.5c0.3,0,0.4-0.2,0.5-0.3l0.9-1.8h4l0.4,1.8c0,0.2,0.2,0.3,0.4,0.3h1.4
		c0.2,0,0.4-0.2,0.3-0.4l-2.9-10.8c0-0.1-0.1-0.2-0.2-0.2h-0.1c-0.1,0-0.2,0.1-0.3,0.2l-6,10.8C342.1,290.3,342.2,290.5,342.4,290.5
		"/>
	<path style="clip-path:url(#SVGID_2_);fill:#FFFFFF;" d="M513,263.2c0,0.2,0.1,0.3,0.2,0.3h5.9c0.2,0,0.3-0.1,0.3-0.3l0.2-1.3
		c0-0.2-0.1-0.3-0.2-0.3h-4.1l0.4-2.8h3.4c0.1,0,0.3-0.1,0.3-0.3l0.2-1.3c0-0.2-0.1-0.3-0.2-0.3H516l0.4-2.6h4.1
		c0.2,0,0.3-0.1,0.3-0.3l0.2-1.3c0-0.2-0.1-0.3-0.2-0.3h-5.9c-0.1,0-0.3,0.1-0.3,0.3L513,263.2z M504.4,257.4l0.4-3.2h2.2
		c0.6,0,1,0.6,1,1.3c0,1-0.7,1.9-1.7,1.9H504.4z M501.5,263.2c0,0.2,0.1,0.3,0.2,0.3h1.6c0.1,0,0.3-0.1,0.3-0.3l0.6-4.1h1.5l1.2,4.1
		c0,0.2,0.2,0.3,0.4,0.3h1.5c0.2,0,0.3-0.2,0.3-0.4l-1.3-4.1c1.5-0.5,2.5-1.7,2.5-3.7c0-1.6-1.1-3-2.7-3h-4.2
		c-0.1,0-0.3,0.1-0.3,0.3L501.5,263.2z M489.7,259.3c-0.3,2.4,1.2,4.4,3.4,4.4c2.5,0,4.4-2,4.7-4.4l0.9-6.7c0-0.2-0.1-0.3-0.2-0.3
		H497c-0.2,0-0.3,0.1-0.3,0.3l-0.9,6.6c-0.2,1.3-1.1,2.4-2.3,2.4c-1.1,0-1.8-1-1.6-2.4l0.9-6.5c0-0.2-0.1-0.3-0.2-0.3H491
		c-0.1,0-0.3,0.1-0.3,0.3L489.7,259.3z M481.6,263.2c0,0.2,0.1,0.3,0.2,0.3h1.6c0.1,0,0.3-0.1,0.3-0.3l1.3-9h2.1
		c0.2,0,0.3-0.1,0.3-0.3l0.2-1.3c0-0.2-0.1-0.3-0.2-0.3H481c-0.1,0-0.3,0.1-0.3,0.3l-0.2,1.3c0,0.2,0.1,0.3,0.2,0.3h2.1L481.6,263.2
		z M472.3,259.7l1.7-3.5h0l0.8,3.5H472.3z M468.4,263.5h1.5c0.3,0,0.4-0.2,0.5-0.3l0.9-1.8h4l0.4,1.8c0,0.2,0.2,0.3,0.4,0.3h1.4
		c0.2,0,0.4-0.2,0.3-0.4l-2.9-10.8c0-0.1-0.1-0.2-0.2-0.2h-0.1c-0.1,0-0.2,0.1-0.3,0.2l-6,10.8C468.1,263.3,468.2,263.5,468.4,263.5
		 M456.6,263.3c0,0.1,0.1,0.3,0.2,0.3h1.5c0.2,0,0.3-0.1,0.3-0.3l0.9-6.7h0l4.9,7.1h0.4c0.1,0,0.3-0.1,0.3-0.3l1.5-10.8
		c0-0.2-0.1-0.3-0.2-0.3h-1.6c-0.2,0-0.3,0.1-0.3,0.3l-0.9,6.4h0l-4.9-6.9h-0.4c-0.1,0-0.3,0.1-0.3,0.3L456.6,263.3z M441.6,263.2
		c0,0.2,0.1,0.3,0.2,0.3h5.9c0.2,0,0.3-0.1,0.3-0.3l0.2-1.3c0-0.2-0.1-0.3-0.2-0.3h-4.1l0.4-2.8h3.4c0.1,0,0.3-0.1,0.3-0.3l0.2-1.3
		c0-0.2-0.1-0.3-0.2-0.3h-3.4l0.4-2.6h4.1c0.2,0,0.3-0.1,0.3-0.3l0.2-1.3c0-0.2-0.1-0.3-0.2-0.3h-5.9c-0.1,0-0.3,0.1-0.3,0.3
		L441.6,263.2z M433,257.4l0.4-3.2h2.2c0.6,0,1,0.6,1,1.3c0,1-0.7,1.9-1.7,1.9H433z M430.1,263.2c0,0.2,0.1,0.3,0.2,0.3h1.6
		c0.1,0,0.3-0.1,0.3-0.3l0.6-4.1h1.5l1.2,4.1c0,0.2,0.2,0.3,0.4,0.3h1.5c0.2,0,0.3-0.2,0.3-0.4l-1.3-4.1c1.5-0.5,2.5-1.7,2.5-3.7
		c0-1.6-1.1-3-2.7-3h-4.2c-0.1,0-0.3,0.1-0.3,0.3L430.1,263.2z M421.6,259.7l1.7-3.5h0l0.8,3.5H421.6z M417.8,263.5h1.5
		c0.3,0,0.4-0.2,0.5-0.3l0.9-1.8h4l0.4,1.8c0,0.2,0.2,0.3,0.4,0.3h1.4c0.2,0,0.4-0.2,0.3-0.4l-2.9-10.8c0-0.1-0.1-0.2-0.2-0.2h-0.1
		c-0.1,0-0.2,0.1-0.3,0.2l-6,10.8C417.5,263.3,417.6,263.5,417.8,263.5 M403.9,263.2c0,0.2,0.1,0.3,0.2,0.3h5.9
		c0.2,0,0.3-0.1,0.3-0.3l0.2-1.3c0-0.2-0.1-0.3-0.2-0.3h-4.1l0.4-2.8h3.4c0.1,0,0.3-0.1,0.3-0.3l0.2-1.3c0-0.2-0.1-0.3-0.2-0.3h-3.4
		l0.4-2.6h4.1c0.2,0,0.3-0.1,0.3-0.3l0.2-1.3c0-0.2-0.1-0.3-0.2-0.3h-5.9c-0.1,0-0.3,0.1-0.3,0.3L403.9,263.2z M391,263.5
		c0,0.1,0.1,0.2,0.2,0.2h0.2c0.1,0,0.2-0.1,0.3-0.2l3.6-6.9h0.1l1.6,6.9c0,0.1,0.1,0.2,0.2,0.2h0.2c0.1,0,0.2-0.1,0.3-0.2l4.2-10.8
		c0.1-0.2,0-0.4-0.2-0.4h-1.5c-0.1,0-0.2,0.1-0.3,0.2l-2.3,6.1h-0.1l-1.3-6.3c0-0.1-0.1-0.2-0.2-0.2h-0.3c-0.1,0-0.2,0.1-0.3,0.2
		l-3.2,6.3h-0.1l-0.5-6.1c0-0.1-0.1-0.2-0.2-0.2h-1.4c-0.2,0-0.3,0.2-0.3,0.4L391,263.5z M371.6,263.3c0,0.1,0.1,0.3,0.2,0.3h1.5
		c0.2,0,0.3-0.1,0.3-0.3l0.9-6.7h0l4.9,7.1h0.4c0.1,0,0.3-0.1,0.3-0.3l1.5-10.8c0-0.2-0.1-0.3-0.2-0.3h-1.6c-0.2,0-0.3,0.1-0.3,0.3
		l-0.9,6.4h0l-4.9-6.9h-0.4c-0.1,0-0.3,0.1-0.3,0.3L371.6,263.3z M365.1,263.2c0,0.2,0.1,0.3,0.2,0.3h1.6c0.1,0,0.3-0.1,0.3-0.3
		l1.5-10.6c0-0.2-0.1-0.3-0.2-0.3h-1.6c-0.1,0-0.3,0.1-0.3,0.3L365.1,263.2z M354.8,263.2c0,0.2,0.1,0.3,0.2,0.3h5.9
		c0.2,0,0.3-0.1,0.3-0.3l0.2-1.3c0-0.2-0.1-0.3-0.2-0.3h-4.1l0.4-2.8h3.4c0.1,0,0.3-0.1,0.3-0.3l0.2-1.3c0-0.2-0.1-0.3-0.2-0.3h-3.4
		l0.4-2.6h4.1c0.2,0,0.3-0.1,0.3-0.3l0.2-1.3c0-0.2-0.1-0.3-0.2-0.3h-5.9c-0.1,0-0.3,0.1-0.3,0.3L354.8,263.2z M346.3,257.4l0.4-3.2
		h2.2c0.6,0,1,0.6,1,1.3c0,1-0.7,1.9-1.7,1.9H346.3z M343.3,263.2c0,0.2,0.1,0.3,0.2,0.3h1.6c0.1,0,0.3-0.1,0.3-0.3l0.6-4.1h1.5
		l1.2,4.1c0,0.2,0.2,0.3,0.4,0.3h1.5c0.2,0,0.3-0.2,0.3-0.4l-1.3-4.1c1.5-0.5,2.5-1.7,2.5-3.7c0-1.6-1.1-3-2.7-3h-4.2
		c-0.1,0-0.3,0.1-0.3,0.3L343.3,263.2z M333.1,263.2c0,0.2,0.1,0.3,0.2,0.3h5.9c0.2,0,0.3-0.1,0.3-0.3l0.2-1.3
		c0-0.2-0.1-0.3-0.2-0.3h-4.1l0.4-2.8h3.4c0.1,0,0.3-0.1,0.3-0.3l0.2-1.3c0-0.2-0.1-0.3-0.2-0.3h-3.4l0.4-2.6h4.1
		c0.2,0,0.3-0.1,0.3-0.3l0.2-1.3c0-0.2-0.1-0.3-0.2-0.3h-5.9c-0.1,0-0.3,0.1-0.3,0.3L333.1,263.2z M324.9,263.5
		c0,0.1,0.1,0.2,0.2,0.2h0.1c0.1,0,0.2-0.1,0.3-0.2l6-10.8c0.1-0.2,0-0.4-0.2-0.4h-1.8c-0.1,0-0.2,0.1-0.3,0.2l-3.6,6.7h-0.1
		l-1.6-6.7c0-0.1-0.1-0.2-0.2-0.2h-1.6c-0.2,0-0.4,0.2-0.3,0.4L324.9,263.5z"/>
	<line style="clip-path:url(#SVGID_2_);fill:none;stroke:#FFFFFF;stroke-width:2.5;" x1="289.3" y1="219" x2="552.2" y2="219"/>
	<line style="clip-path:url(#SVGID_2_);fill:none;stroke:#FFFFFF;stroke-width:2.5;" x1="559.2" y1="226.1" x2="559.2" y2="369.9"/>
	<line style="clip-path:url(#SVGID_2_);fill:none;stroke:#FFFFFF;stroke-width:2.5;" x1="552.2" y1="377" x2="289.3" y2="377"/>
	<line style="clip-path:url(#SVGID_2_);fill:none;stroke:#FFFFFF;stroke-width:2.5;" x1="282.2" y1="369.9" x2="282.2" y2="227.1"/>
</g>
<g>
</g>
<g>
</g>
<g>
</g>
<g>
</g>
<g>
</g>
<g>
</g>
</svg>
