<?xml version="1.0" encoding="utf-8"?>
<!-- Generator: Adobe Illustrator 19.2.0, SVG Export Plug-In . SVG Version: 6.00 Build 0)  -->
<svg version="1.1" id="Ebene_1" xmlns="http://www.w3.org/2000/svg" xmlns:xlink="http://www.w3.org/1999/xlink" x="0px" y="0px"
	 viewBox="0 0 841.9 595.3" style="enable-background:new 0 0 841.9 595.3;" xml:space="preserve">
<path style="fill:#FFFFFF;" d="M717.2,338.5l1.3-9.6h6.6c1.8,0,3.1,1.8,3.1,4c0,3-2,5.6-5,5.6H717.2z M708.5,355.9
	c-0.1,0.5,0.2,0.9,0.7,0.9h4.7c0.4,0,0.9-0.4,0.9-0.9l1.7-12.2h4.6l3.5,12.4c0.1,0.6,0.6,0.8,1.1,0.8h4.6c0.7,0,1-0.6,0.8-1.2
	l-3.9-12.3c4.6-1.4,7.6-5.2,7.6-11.1c0-4.9-3.4-9-8.1-9h-12.7c-0.4,0-0.9,0.4-0.9,0.9L708.5,355.9z M669.4,355.9
	c-0.1,0.5,0.2,0.9,0.7,0.9h17.8c0.5,0,0.9-0.4,1-0.9l0.5-3.9c0-0.5-0.2-0.9-0.7-0.9h-12.3l1.2-8.4h10.2c0.4,0,0.9-0.4,1-0.9l0.6-4
	c0-0.5-0.3-0.9-0.7-0.9h-10.2l1.1-7.9h12.3c0.5,0,0.9-0.4,1-0.9l0.6-3.9c0-0.5-0.2-0.9-0.7-0.9h-17.8c-0.4,0-0.9,0.4-0.9,0.9
	L669.4,355.9z M634.1,355.9c0,0.5,0.2,0.9,0.7,0.9h16c0.5,0,0.9-0.4,1-0.9l0.5-3.9c0-0.5-0.2-0.9-0.7-0.9H641l3.8-26.9
	c0-0.5-0.2-0.9-0.7-0.9h-4.7c-0.5,0-0.9,0.4-1,0.9L634.1,355.9z M598.8,355.9c0,0.5,0.2,0.9,0.7,0.9h16c0.5,0,0.9-0.4,1-0.9l0.5-3.9
	c0-0.5-0.2-0.9-0.7-0.9h-10.6l3.8-26.9c0-0.5-0.2-0.9-0.7-0.9h-4.7c-0.5,0-0.9,0.4-1,0.9L598.8,355.9z M564.6,351
	c-4.5,0-7.7-4.3-7.7-9.5c0-6.8,5.2-12.6,10.8-12.6c4.6,0,7.7,4.4,7.7,9.6C575.4,345.4,570.2,351,564.6,351 M550.4,342.4
	c0,8,5.7,14.9,13.5,14.9c10.1,0,18-8.7,18-19.5c0-8.2-5.7-15-13.5-15C558.2,322.7,550.4,331.6,550.4,342.4 M519.1,355.9
	c0,0.5,0.3,0.9,0.7,0.9h4.7c0.4,0,0.9-0.4,1-0.9l3.8-26.9h6.3c0.5,0,0.9-0.4,1-0.9l0.6-3.9c0-0.5-0.2-0.9-0.7-0.9h-19.1
	c-0.4,0-0.9,0.4-0.9,0.9l-0.6,3.9c0,0.5,0.2,0.9,0.7,0.9h6.3L519.1,355.9z M477.1,353.5c0.8,0.9,4.2,3.7,9.1,3.7
	c7.1,0,11.5-4.7,11.5-10.3c0-5.3-4.2-7.9-7.4-10c-2.9-1.9-4.2-2.9-4.2-4.8c0-1.9,1.6-3.7,4.1-3.7s4.7,1.5,5.4,2.1
	c0.7,0.5,1.3,0.5,1.7-0.1l1.9-2.6c0.5-0.7,0.4-1.3-0.1-1.9c-0.8-0.8-4.1-3.1-8.5-3.1c-7.5,0-10.8,5.2-10.8,10c0,4.8,3.7,7.5,6.9,9.6
	c2.7,1.8,4.1,3.2,4.1,5.3c0,2.4-2.1,4.1-4.3,4.1c-2.9,0-5.3-1.9-6-2.5c-0.4-0.3-1.1-0.5-1.5,0.2l-1.9,2.7
	C476.6,352.8,476.8,353.2,477.1,353.5 M416.8,350.9l3.1-21.9h4.5c4.6,0,7.6,4,7.6,9.2c0,7.2-4.8,12.7-10.7,12.7H416.8z M409.9,355.9
	c-0.1,0.5,0.2,0.9,0.6,0.9h10.4c10.1,0,17.7-8.6,17.7-19c0-7.8-5.4-14.6-13-14.6h-10.4c-0.4,0-0.9,0.4-0.9,0.9L409.9,355.9z
	 M375.7,338.5l1.3-9.6h6.6c1.8,0,3.1,1.8,3.1,4c0,3-2,5.6-5,5.6H375.7z M367,355.9c-0.1,0.5,0.2,0.9,0.7,0.9h4.7
	c0.4,0,0.9-0.4,0.9-0.9l1.7-12.2h4.6L383,356c0.1,0.6,0.6,0.8,1.1,0.8h4.6c0.7,0,1-0.6,0.8-1.2l-3.9-12.3c4.6-1.4,7.6-5.2,7.6-11.1
	c0-4.9-3.4-9-8.1-9h-12.7c-0.4,0-0.9,0.4-0.9,0.9L367,355.9z M333.1,345.3l5.2-10.5h0.1l2.3,10.5H333.1z M321.6,356.8h4.4
	c0.8,0,1.3-0.5,1.5-1l2.8-5.3h12l1.2,5.3c0.1,0.7,0.5,1,1.2,1h4.2c0.7,0,1.1-0.6,0.9-1.2l-8.8-32.3c-0.1-0.3-0.3-0.5-0.7-0.5h-0.4
	c-0.4,0-0.6,0.2-0.8,0.5l-18,32.3C320.7,356.2,320.9,356.8,321.6,356.8 M277.9,355.9c-0.1,0.5,0.2,0.9,0.7,0.9h4.7
	c0.5,0,0.9-0.4,1-0.9l1.9-13.2h13.1l-1.9,13.2c0,0.5,0.2,0.9,0.7,0.9h4.7c0.4,0,0.9-0.4,1-0.9l4.5-31.8c0-0.5-0.3-0.9-0.7-0.9h-4.6
	c-0.5,0-0.9,0.4-1,0.9l-1.8,12.7h-13.1l1.8-12.7c0-0.5-0.2-0.9-0.7-0.9h-4.6c-0.4,0-0.9,0.4-1,0.9L277.9,355.9z M230.6,356
	c0,0.4,0.3,0.8,0.7,0.8h4.6c0.5,0,0.9-0.4,1-0.9l2.6-20h0l14.6,21.4h1.3c0.4,0,0.9-0.4,0.9-0.9l4.6-32.3c0-0.5-0.3-0.9-0.7-0.9h-4.7
	c-0.5,0-0.9,0.4-0.9,0.9l-2.6,19.3h0l-14.6-20.7H236c-0.4,0-0.9,0.4-0.9,0.9L230.6,356z M196.4,338.5l1.3-9.6h6.6
	c1.8,0,3.1,1.8,3.1,4c0,3-2,5.6-5,5.6H196.4z M187.7,355.9c-0.1,0.5,0.2,0.9,0.7,0.9h4.7c0.4,0,0.9-0.4,0.9-0.9l1.7-12.2h4.6
	l3.5,12.4c0.1,0.6,0.6,0.8,1.1,0.8h4.6c0.7,0,1-0.6,0.8-1.2l-3.9-12.3c4.6-1.4,7.6-5.2,7.6-11.1c0-4.9-3.4-9-8.1-9h-12.7
	c-0.4,0-0.9,0.4-0.9,0.9L187.7,355.9z M148.6,355.9c-0.1,0.5,0.2,0.9,0.7,0.9H167c0.5,0,0.9-0.4,1-0.9l0.5-3.9
	c0-0.5-0.2-0.9-0.7-0.9h-12.3l1.2-8.4h10.2c0.4,0,0.9-0.4,1-0.9l0.6-4c0-0.5-0.3-0.9-0.7-0.9h-10.2l1.1-7.9h12.3
	c0.5,0,0.9-0.4,1-0.9l0.6-3.9c0-0.5-0.2-0.9-0.7-0.9H154c-0.4,0-0.9,0.4-0.9,0.9L148.6,355.9z M114.9,351.1l1.2-8.5h4
	c1.8,0,3.4,1.6,3.4,3.6c0,2.7-2,4.9-4.5,4.9H114.9z M116.9,337.3l1.2-8.4h3.9c1.7,0,2.8,1.4,2.8,3.4c0,2.7-1.9,5-4.5,5H116.9z
	 M108,355.9c-0.1,0.5,0.2,0.9,0.7,0.9h10.6c6.5,0,10.8-4.4,10.8-10.2c0-3.7-2.5-5.9-4.5-6.7c2.4-1.1,5.9-4.5,5.9-8.9
	c0-4.2-3.4-7.8-8.1-7.8h-10c-0.5,0-0.9,0.4-1,0.9L108,355.9z"/>
<g>
</g>
<g>
</g>
<g>
</g>
<g>
</g>
<g>
</g>
<g>
</g>
</svg>
