<?xml version="1.0" encoding="utf-8"?>
<!-- Generator: Adobe Illustrator 19.2.0, SVG Export Plug-In . SVG Version: 6.00 Build 0)  -->
<svg version="1.1" id="Ebene_1" xmlns="http://www.w3.org/2000/svg" xmlns:xlink="http://www.w3.org/1999/xlink" x="0px" y="0px"
	 viewBox="0 0 841.9 595.3" style="enable-background:new 0 0 841.9 595.3;" xml:space="preserve">
<path style="fill:#FFFFFF;" d="M697,271c0,0.4,0.3,0.8,0.7,0.8h4.6c0.5,0,0.9-0.4,1-0.9l2.6-20h0l14.6,21.4h1.3
	c0.4,0,0.9-0.4,0.9-0.9l4.6-32.3c0-0.5-0.3-0.9-0.7-0.9h-4.7c-0.5,0-0.9,0.4-0.9,0.9l-2.6,19.3h0l-14.6-20.7h-1.2
	c-0.4,0-0.9,0.4-0.9,0.9L697,271z M669.2,270.9c-0.1,0.5,0.2,0.9,0.7,0.9h4.7c0.4,0,0.9-0.4,0.9-0.9l4.5-31.8
	c0.1-0.5-0.2-0.9-0.7-0.9h-4.7c-0.4,0-0.9,0.4-0.9,0.9L669.2,270.9z M615.5,270.7c-0.2,0.7,0.1,1.1,0.7,1.1h4.6
	c0.6,0,0.8-0.4,0.9-0.7l4.6-17.2h0.1l4.9,17.9c0.1,0.3,0.3,0.5,0.7,0.5h0.8c0.4,0,0.7-0.2,0.8-0.5l10-17.9h0.1l-0.4,17.2
	c0,0.3,0.2,0.7,0.7,0.7h4.6c0.5,0,1-0.4,1-1.1l-0.4-32.3c0-0.4-0.3-0.7-0.7-0.7h-0.7c-0.4,0-0.6,0.2-0.8,0.5l-13.1,21.7h-0.1
	l-6.5-21.7c-0.1-0.3-0.3-0.5-0.7-0.5h-0.7c-0.5,0-0.8,0.3-0.9,0.7L615.5,270.7z M583.6,260.3l5.2-10.5h0.1l2.3,10.5H583.6z
	 M572.1,271.8h4.4c0.8,0,1.3-0.5,1.5-1l2.8-5.3h12l1.2,5.3c0.1,0.7,0.5,1,1.2,1h4.2c0.7,0,1.1-0.6,0.9-1.2l-8.8-32.3
	c-0.1-0.3-0.3-0.5-0.7-0.5h-0.4c-0.4,0-0.6,0.2-0.8,0.5l-18,32.3C571.2,271.2,571.4,271.8,572.1,271.8 M539.1,268.8
	c0.7,1.1,2.9,3.5,6.7,3.5c6.2,0,9.2-3.8,10.1-10.5l3.2-22.7c0-0.5-0.2-0.9-0.7-0.9h-4.8c-0.4,0-0.9,0.4-0.9,0.9l-3.2,22.7
	c-0.4,3.3-2.2,4.8-3.8,4.8c-1.2,0-2.3-0.7-2.8-1.2c-0.4-0.4-0.7-0.5-1.2,0l-2.2,2.2C539.1,267.9,538.9,268.4,539.1,268.8 M496.1,271
	c0,0.4,0.3,0.8,0.7,0.8h4.6c0.5,0,0.9-0.4,1-0.9l2.6-20h0l14.6,21.4h1.3c0.4,0,0.9-0.4,0.9-0.9l4.6-32.3c0-0.5-0.3-0.9-0.7-0.9H521
	c-0.5,0-0.9,0.4-0.9,0.9l-2.6,19.3h0l-14.6-20.7h-1.2c-0.4,0-0.9,0.4-0.9,0.9L496.1,271z M457,270.9c-0.1,0.5,0.2,0.9,0.7,0.9h17.8
	c0.5,0,0.9-0.4,1-0.9l0.5-3.9c0-0.5-0.2-0.9-0.7-0.9h-12.3l1.2-8.4h10.2c0.4,0,0.9-0.4,1-0.9l0.6-4c0-0.5-0.3-0.9-0.7-0.9h-10.2
	l1.1-7.9h12.3c0.5,0,0.9-0.4,1-0.9l0.6-3.9c0-0.5-0.2-0.9-0.7-0.9h-17.8c-0.4,0-0.9,0.4-0.9,0.9L457,270.9z M423.3,266.1l1.2-8.5h4
	c1.8,0,3.4,1.6,3.4,3.6c0,2.7-2,4.9-4.5,4.9H423.3z M425.2,252.3l1.2-8.4h3.9c1.7,0,2.8,1.4,2.8,3.4c0,2.7-1.9,5-4.5,5H425.2z
	 M416.4,270.9c-0.1,0.5,0.2,0.9,0.7,0.9h10.6c6.5,0,10.8-4.4,10.8-10.2c0-3.7-2.5-5.9-4.5-6.7c2.4-1.1,5.9-4.5,5.9-8.9
	c0-4.2-3.4-7.8-8.1-7.8h-10c-0.5,0-0.9,0.4-1,0.9L416.4,270.9z M354.5,270.9c-0.1,0.5,0.2,0.9,0.7,0.9H373c0.5,0,0.9-0.4,1-0.9
	l0.5-3.9c0-0.5-0.2-0.9-0.7-0.9h-12.3l1.2-8.4h10.2c0.4,0,0.9-0.4,1-0.9l0.6-4c0-0.5-0.3-0.9-0.7-0.9h-10.2l1.1-7.9h12.3
	c0.5,0,0.9-0.4,1-0.9l0.6-3.9c0-0.5-0.2-0.9-0.7-0.9h-17.8c-0.4,0-0.9,0.4-0.9,0.9L354.5,270.9z M315.4,270.9
	c-0.1,0.5,0.2,0.9,0.7,0.9h17.8c0.5,0,0.9-0.4,1-0.9l0.5-3.9c0-0.5-0.2-0.9-0.7-0.9h-12.3l1.2-8.4h10.2c0.4,0,0.9-0.4,1-0.9l0.6-4
	c0-0.5-0.3-0.9-0.7-0.9h-10.2l1.1-7.9h12.3c0.5,0,0.9-0.4,1-0.9l0.6-3.9c0-0.5-0.2-0.9-0.7-0.9h-17.8c-0.4,0-0.9,0.4-0.9,0.9
	L315.4,270.9z M280.1,270.9c0,0.5,0.2,0.9,0.7,0.9h16c0.5,0,0.9-0.4,1-0.9l0.5-3.9c0-0.5-0.2-0.9-0.7-0.9h-10.6l3.8-26.9
	c0-0.5-0.2-0.9-0.7-0.9h-4.7c-0.5,0-0.9,0.4-1,0.9L280.1,270.9z M223.6,260.3l5.2-10.5h0.1l2.3,10.5H223.6z M212,271.8h4.4
	c0.8,0,1.3-0.5,1.5-1l2.8-5.3h12l1.2,5.3c0.1,0.7,0.5,1,1.2,1h4.2c0.7,0,1.1-0.6,0.9-1.2l-8.8-32.3c-0.1-0.3-0.3-0.5-0.7-0.5h-0.4
	c-0.4,0-0.6,0.2-0.8,0.5l-18,32.3C211.1,271.2,211.3,271.8,212,271.8 M177,268.5c0.8,0.9,4.2,3.7,9.1,3.7c7.1,0,11.5-4.7,11.5-10.3
	c0-5.3-4.2-7.9-7.4-10c-2.9-1.9-4.2-2.9-4.2-4.8c0-1.9,1.6-3.7,4.1-3.7s4.7,1.5,5.4,2.1c0.7,0.5,1.3,0.5,1.7-0.1l1.9-2.6
	c0.5-0.7,0.4-1.3-0.1-1.9c-0.8-0.8-4.1-3.1-8.5-3.1c-7.5,0-10.8,5.2-10.8,10s3.7,7.5,6.9,9.6c2.7,1.8,4.1,3.2,4.1,5.3
	c0,2.4-2.1,4.1-4.3,4.1c-2.9,0-5.3-1.9-6-2.5c-0.4-0.3-1.1-0.5-1.5,0.2l-1.9,2.7C176.5,267.8,176.7,268.2,177,268.5 M150.4,270.9
	c-0.1,0.5,0.2,0.9,0.7,0.9h4.7c0.4,0,0.9-0.4,0.9-0.9l4.5-31.8c0.1-0.5-0.2-0.9-0.7-0.9h-4.7c-0.4,0-0.9,0.4-0.9,0.9L150.4,270.9z
	 M115.1,270.9c0,0.5,0.2,0.9,0.7,0.9h16c0.5,0,0.9-0.4,1-0.9l0.5-3.9c0-0.5-0.2-0.9-0.7-0.9h-10.6l3.8-26.9c0-0.5-0.2-0.9-0.7-0.9
	h-4.7c-0.5,0-0.9,0.4-1,0.9L115.1,270.9z"/>
<g>
</g>
<g>
</g>
<g>
</g>
<g>
</g>
<g>
</g>
<g>
</g>
</svg>
