<?xml version="1.0" encoding="utf-8"?>
<!-- Generator: Adobe Illustrator 19.2.0, SVG Export Plug-In . SVG Version: 6.00 Build 0)  -->
<svg version="1.1" id="Ebene_1" xmlns="http://www.w3.org/2000/svg" xmlns:xlink="http://www.w3.org/1999/xlink" x="0px" y="0px"
	 width="1211.6" height="595.3" viewBox="0 0 1211.6 595.3" style="enable-background:new 0 0 1211.6 595.3;" xml:space="preserve">
<g>
	<path style="fill:#FFFFFF;" d="M425.2,123.2c-0.3-1.1,0.3-1.9,1.4-1.9h3.4c0.6,0,1.3,0.6,1.4,1.1l11.2,41.6h0.3l13.4-42.7
		c0.2-0.5,0.6-0.9,1.4-0.9h1.4c0.6,0,1.2,0.4,1.4,0.9l13.7,42.7h0.3l10.9-41.6c0.2-0.6,0.8-1.1,1.4-1.1h3.4c1.1,0,1.8,0.8,1.4,1.9
		l-15.2,54c-0.2,0.6-0.8,1.1-1.4,1.1h-1.3c-0.6,0-1.1-0.4-1.4-0.9l-13.9-43.5h-0.4l-13.7,43.5c-0.2,0.5-0.8,0.9-1.4,0.9h-1.3
		c-0.6,0-1.3-0.5-1.4-1.1L425.2,123.2z"/>
	<path style="fill:#FFFFFF;" d="M514.8,122.8c0-0.8,0.6-1.5,1.5-1.5H548c0.9,0,1.5,0.7,1.5,1.5v2.3c0,0.8-0.6,1.5-1.5,1.5h-27v19.6
		h23.1c0.8,0,1.5,0.7,1.5,1.5v2.3c0,0.9-0.7,1.5-1.5,1.5H521v20.5h27c0.9,0,1.5,0.7,1.5,1.5v2.3c0,0.8-0.6,1.5-1.5,1.5h-31.7
		c-0.9,0-1.5-0.7-1.5-1.5V122.8z"/>
	<path style="fill:#FFFFFF;" d="M596.6,175.4l24.4-54.1c0.2-0.5,0.6-0.9,1.4-0.9h0.8c0.7,0,1.1,0.4,1.4,0.9l24.3,54.1
		c0.5,1-0.2,2.1-1.4,2.1h-3.2c-0.7,0-1.2-0.5-1.4-0.9l-5.9-13.3h-28.5l-5.9,13.3c-0.2,0.4-0.6,0.9-1.4,0.9H598
		C596.8,177.5,596.2,176.5,596.6,175.4z M634.8,158.4c-3.9-8.8-7.8-17.6-11.7-26.4h-0.6l-11.7,26.4H634.8z"/>
	<path style="fill:#FFFFFF;" d="M669.7,122.8c0-0.8,0.6-1.5,1.5-1.5h20.8c9.6,0,17.5,7.6,17.5,17.1c0,7.4-4.9,13.6-11.9,16.4
		l11,20.4c0.6,1,0,2.3-1.4,2.3h-4.1c-0.7,0-1.1-0.4-1.3-0.7l-10.7-21.3h-15.4V176c0,0.8-0.7,1.5-1.5,1.5h-3.1
		c-0.9,0-1.5-0.7-1.5-1.5V122.8z M691.7,150.2c6.2,0,11.6-5.1,11.6-11.7c0-6.1-5.4-11.3-11.6-11.3h-15.6v23.1H691.7z"/>
	<path style="fill:#FFFFFF;" d="M734.9,122.8c0-0.8,0.6-1.5,1.5-1.5h31.7c0.9,0,1.5,0.7,1.5,1.5v2.3c0,0.8-0.6,1.5-1.5,1.5h-27v19.6
		h23.1c0.8,0,1.5,0.7,1.5,1.5v2.3c0,0.9-0.7,1.5-1.5,1.5h-23.1v20.5h27c0.9,0,1.5,0.7,1.5,1.5v2.3c0,0.8-0.6,1.5-1.5,1.5h-31.7
		c-0.9,0-1.5-0.7-1.5-1.5V122.8z"/>
</g>
<g>
	<rect x="398.4" y="91.3" style="fill:#FFFFFF;" width="398.9" height="3.5"/>
	<rect x="388.9" y="100.1" style="fill:#FFFFFF;" width="3.5" height="99.4"/>
	<rect x="803.3" y="100.1" style="fill:#FFFFFF;" width="3.5" height="99.4"/>
	<rect x="398.4" y="204.9" style="fill:#FFFFFF;" width="398.9" height="3.5"/>
</g>
<g>
	<path style="fill:#FFFFFF;" d="M1147.2,359.4l-7.7-11.2c-0.8-13.1-5.8-25.1-13.7-34.6C1138.9,324.6,1147.2,341,1147.2,359.4z"/>
	<path style="fill:#FFFFFF;" d="M1139.1,420.3h8c0,32.9-26.7,59.6-59.6,59.6c-18.4,0-34.8-8.3-45.8-21.4
		c10.3,8.6,23.7,13.8,38.2,13.8C1110.4,472.4,1135.4,449.7,1139.1,420.3z"/>
	<path style="fill:#FFFFFF;" d="M1124.5,397.6l7.4,11.7c-2.1,31-27.9,55.5-59.5,55.5c-12.6,0-24.3-3.9-33.9-10.6
		c-1-1.5-2-3.1-2.9-4.6c8.6,4.9,18.6,7.6,29.2,7.6C1097.8,457.2,1124.5,430.5,1124.5,397.6z"/>
	<path style="fill:#FFFFFF;" d="M1131.6,336.7h-7.1c0-10.6-2.8-20.6-7.7-29.2c1.6,0.9,3.2,1.9,4.7,2.9
		C1126.8,318,1130.3,327,1131.6,336.7z"/>
	<path style="fill:#FFFFFF;" d="M1028,382.3v7.6v30.5c0,10.6,2.8,20.6,7.7,29.2c-1.6-0.9-3.2-1.9-4.7-2.9
		c-6.7-9.6-10.6-21.3-10.6-33.9v-60.9c0-32.9,26.7-59.6,59.6-59.6c12.6,0,24.3,3.9,33.9,10.6c1,1.5,2,3.1,2.9,4.6
		c-8.6-4.9-18.6-7.6-29.2-7.6c-32.9,0-59.6,26.7-59.6,59.6v7.7v7.6V382.3z"/>
	<path style="fill:#FFFFFF;" d="M1064.9,277.1c18.4,0,34.8,8.3,45.8,21.4c-10.3-8.6-23.7-13.8-38.2-13.8
		c-32.9,0-59.6,26.7-59.6,59.6v60.9c0,14.5,5.2,27.8,13.8,38.2c-13.1-10.9-21.4-27.4-21.4-45.8v-60.9
		C1005.3,303.7,1031.9,277.1,1064.9,277.1z"/>
	<polygon style="fill:#FFFFFF;" points="1087.6,389.9 1028,389.9 1028,382.3 1076.2,382.3 	"/>
	<rect x="1028" y="367.1" style="fill:#FFFFFF;" width="36.9" height="7.6"/>
	<path style="fill:#FFFFFF;" d="M968.7,359.4l-7.7-11.2c-0.8-13.1-5.8-25.1-13.8-34.6C960.3,324.5,968.7,341,968.7,359.4z"/>
	<path style="fill:#FFFFFF;" d="M953.1,336.7H946c0-10.6-2.8-20.6-7.7-29.2c1.6,0.9,3.2,1.9,4.7,2.9
		C948.3,318,951.8,327,953.1,336.7z"/>
	<path style="fill:#FFFFFF;" d="M935.4,302.8c1,1.5,2,3,2.9,4.6c-8.6-4.9-18.6-7.6-29.2-7.6c-32.9,0-59.6,26.7-59.6,59.6v120.8
		l-7.6-11.4h0v-117c0-32.9,26.7-59.6,59.6-59.6C914.1,292.2,925.8,296.1,935.4,302.8z"/>
	<path style="fill:#FFFFFF;" d="M886.4,277.1c18.4,0,34.8,8.3,45.8,21.4c-10.3-8.6-23.7-13.9-38.2-13.9c-32.9,0-59.6,26.7-59.6,59.6
		v113.2h-7.6V336.7C826.8,303.7,853.4,277.1,886.4,277.1z"/>
	<path style="fill:#FFFFFF;" d="M762.7,299.8v120.5c0,32.9-26.7,59.6-59.6,59.6c-18.4,0-34.8-8.3-45.8-21.4
		c10.3,8.6,23.7,13.8,38.2,13.8c32.9,0,59.6-26.7,59.6-59.6v-113H762.7z"/>
	<path style="fill:#FFFFFF;" d="M747.6,288.4v116.8c0,32.9-26.7,59.6-59.6,59.6c-12.6,0-24.3-3.9-33.9-10.6c-1-1.5-2-3.1-2.9-4.6
		c8.6,4.9,18.6,7.6,29.2,7.6c32.9,0,59.6-26.7,59.6-59.6V277.1L747.6,288.4z"/>
	<path style="fill:#FFFFFF;" d="M651.2,449.6c-1.6-0.9-3.2-1.9-4.7-2.9c-6.7-9.6-10.6-21.3-10.6-33.9v-113h7.6v120.5
		C643.5,431,646.3,440.9,651.2,449.6z"/>
	<path style="fill:#FFFFFF;" d="M642.2,443.4c-13.1-10.9-21.4-27.4-21.4-45.8V277.1l7.6,11.4v116.8h0
		C628.4,419.7,633.6,433,642.2,443.4z"/>
	<polygon style="fill:#FFFFFF;" points="582.4,299.8 519.8,299.8 519.8,292.2 571.2,292.2 	"/>
	<polygon style="fill:#FFFFFF;" points="559.7,277.1 559.9,284.6 519.8,284.6 519.8,277.1 	"/>
	<polygon style="fill:#FFFFFF;" points="519.8,299.8 519.8,480.2 512.2,468.8 512.2,299.8 	"/>
	<rect x="512.2" y="292.2" style="fill:#FFFFFF;" width="7.6" height="7.6"/>
	<rect x="512.2" y="284.6" style="fill:#FFFFFF;" width="7.6" height="7.6"/>
	<polygon style="fill:#FFFFFF;" points="519.8,277.1 519.8,284.6 512.2,284.6 	"/>
	<polygon style="fill:#FFFFFF;" points="519.8,277.1 512.2,284.6 445.7,284.6 434.5,277.1 	"/>
	<rect x="497.1" y="299.8" style="fill:#FFFFFF;" width="7.6" height="157.7"/>
	<polygon style="fill:#FFFFFF;" points="504.7,292.2 504.7,299.8 497.1,299.8 504.7,292.2 	"/>
	<polygon style="fill:#FFFFFF;" points="504.7,292.2 497.1,299.8 457.2,299.8 456.9,292.2 	"/>
	<polygon style="fill:#FFFFFF;" points="413.4,406.4 413.4,480.2 405.8,468.8 405.8,406.4 	"/>
	<path style="fill:#FFFFFF;" d="M413.4,359.4v47l-7.6-7.6v0v-47h0c0-14.5-5.2-27.8-13.8-38.2C405,324.6,413.4,341,413.4,359.4z"/>
	<polygon style="fill:#FFFFFF;" points="413.4,406.4 405.8,406.4 405.8,398.8 	"/>
	<polygon style="fill:#FFFFFF;" points="405.8,398.8 405.8,406.4 398.2,406.4 398.2,398.8 405.8,398.8 405.8,398.8 	"/>
	<polygon style="fill:#FFFFFF;" points="398.2,406.4 398.2,457.5 398.2,457.5 390.6,457.5 390.6,406.4 	"/>
	<rect x="390.6" y="398.8" style="fill:#FFFFFF;" width="7.6" height="7.6"/>
	<path style="fill:#FFFFFF;" d="M398.2,391.2l-7.6-7.5v-47c0-10.6-2.8-20.6-7.7-29.2c1.6,0.9,3.2,1.9,4.7,2.9
		c6.7,9.6,10.6,21.3,10.6,33.9L398.2,391.2L398.2,391.2z"/>
	<polygon style="fill:#FFFFFF;" points="398.2,391.2 390.6,391.2 390.6,383.7 	"/>
	<rect x="294.3" y="398.8" style="fill:#FFFFFF;" width="96.3" height="7.6"/>
	<polygon style="fill:#FFFFFF;" points="390.6,383.7 390.6,391.2 294.6,391.2 294.3,391.2 294.3,383.7 390.6,383.7 	"/>
	<path style="fill:#FFFFFF;" d="M380.1,302.8c1,1.5,2,3,2.9,4.6c-8.6-4.9-18.6-7.6-29.2-7.6c-32.9,0-59.6,26.7-59.6,59.6v47v73.8
		l-7.6-11.4v-117c0-32.9,26.7-59.6,59.6-59.6C358.8,292.2,370.4,296.1,380.1,302.8z"/>
	<path style="fill:#FFFFFF;" d="M331,277.1c18.4,0,34.8,8.3,45.8,21.4c-10.3-8.6-23.6-13.8-38.2-13.8c-32.9,0-59.6,26.7-59.6,59.6
		v113.2h-7.6V336.7C271.4,303.7,298.1,277.1,331,277.1z"/>
	<path style="fill:#FFFFFF;" d="M213.7,359.4v120.5l-7.6-10.8V351.8c0-14.5-5.2-27.8-13.8-38.2C205.4,324.6,213.7,341,213.7,359.4z"
		/>
	<path style="fill:#FFFFFF;" d="M198.6,344.2v113.2l-0.4,0.3l-0.2-0.3l-6.9-0.3V336.7h0c0-10.6-2.8-20.6-7.7-29.2
		c1.6,0.9,3.1,1.9,4.6,2.9C194.7,320,198.6,331.6,198.6,344.2z"/>
	<path style="fill:#FFFFFF;" d="M180.4,302.8c1,1.5,2,3,2.9,4.6c-8.6-4.9-18.6-7.6-29.2-7.6c-32.9,0-59.6,26.7-59.6,59.6v120.5
		l-7.6-11.2V351.8c0-32.9,26.7-59.6,59.6-59.6C159.1,292.2,170.8,296.1,180.4,302.8z"/>
	<path style="fill:#FFFFFF;" d="M131.4,277.1c18.4,0,34.9,8.3,45.8,21.5c-10.3-8.7-23.7-13.9-38.2-13.9c-32.9,0-59.6,26.7-59.6,59.6
		v113v0.3l-7.6-0.3V336.7C71.8,303.7,98.5,277.1,131.4,277.1z"/>
</g>
<g>
</g>
<g>
</g>
<g>
</g>
<g>
</g>
<g>
</g>
<g>
</g>
</svg>
